<svg version="1.1" xmlns="http://www.w3.org/2000/svg" xmlns:xlink="http://www.w3.org/1999/xlink" width="1052" height="825"><defs><clipPath id="wvmwdwfWodOC"><path fill="none" stroke="none" d=" M 0 0 L 1052 0 L 1052 825 L 0 825 L 0 0 Z"/></clipPath></defs><g transform="scale(1,1)" clip-path="url(#wvmwdwfWodOC)"><g><rect fill="rgb(255,255,255)" stroke="none" x="0" y="0" width="1052" height="825" fill-opacity="1"/><path fill="none" stroke="rgb(192,192,192)" paint-order="fill stroke markers" d=" M 18.5 0.5 L 18.5 825.5 M 18.5 0.5 L 18.5 825.5 M 68.5 0.5 L 68.5 825.5 M 118.5 0.5 L 118.5 825.5 M 168.5 0.5 L 168.5 825.5 M 218.5 0.5 L 218.5 825.5 M 268.5 0.5 L 268.5 825.5 M 318.5 0.5 L 318.5 825.5 M 368.5 0.5 L 368.5 825.5 M 418.5 0.5 L 418.5 825.5 M 468.5 0.5 L 468.5 825.5 M 518.5 0.5 L 518.5 825.5 M 568.5 0.5 L 568.5 825.5 M 618.5 0.5 L 618.5 825.5 M 668.5 0.5 L 668.5 825.5 M 718.5 0.5 L 718.5 825.5 M 768.5 0.5 L 768.5 825.5 M 818.5 0.5 L 818.5 825.5 M 868.5 0.5 L 868.5 825.5 M 918.5 0.5 L 918.5 825.5 M 968.5 0.5 L 968.5 825.5 M 1018.5 0.5 L 1018.5 825.5" stroke-opacity="1" stroke-linecap="round" stroke-linejoin="round" stroke-miterlimit="10"/><path fill="none" stroke="rgb(192,192,192)" paint-order="fill stroke markers" d="" stroke-opacity="0.23529411764705882" stroke-linecap="round" stroke-linejoin="round" stroke-miterlimit="10"/><path fill="none" stroke="rgb(192,192,192)" paint-order="fill stroke markers" d=" M 0.5 40.5 L 1052.5 40.5 M 0.5 40.5 L 1052.5 40.5 M 0.5 90.5 L 1052.5 90.5 M 0.5 140.5 L 1052.5 140.5 M 0.5 190.5 L 1052.5 190.5 M 0.5 240.5 L 1052.5 240.5 M 0.5 290.5 L 1052.5 290.5 M 0.5 340.5 L 1052.5 340.5 M 0.5 390.5 L 1052.5 390.5 M 0.5 440.5 L 1052.5 440.5 M 0.5 490.5 L 1052.5 490.5 M 0.5 540.5 L 1052.5 540.5 M 0.5 590.5 L 1052.5 590.5 M 0.5 640.5 L 1052.5 640.5 M 0.5 690.5 L 1052.5 690.5 M 0.5 740.5 L 1052.5 740.5 M 0.5 790.5 L 1052.5 790.5" stroke-opacity="1" stroke-linecap="round" stroke-linejoin="round" stroke-miterlimit="10"/><path fill="none" stroke="rgb(192,192,192)" paint-order="fill stroke markers" d="" stroke-opacity="0.23529411764705882" stroke-linecap="round" stroke-linejoin="round" stroke-miterlimit="10"/><path fill="none" stroke="rgb(0,0,0)" paint-order="fill stroke markers" d=" M 218.50000000000006 690 L 618.5 690" stroke-opacity="0.6980392156862745" stroke-linecap="round" stroke-linejoin="round" stroke-miterlimit="10" stroke-width="2.5"/><path fill="none" stroke="rgb(0,0,0)" paint-order="fill stroke markers" d=" M 218.50000000000006 690 L 218.50000000000006 0" stroke-opacity="0.6980392156862745" stroke-linecap="round" stroke-linejoin="round" stroke-miterlimit="10" stroke-width="2.5"/><path fill="none" stroke="rgb(0,0,0)" paint-order="fill stroke markers" d=" M 618.5 690 L 618.5 0" stroke-opacity="0.6980392156862745" stroke-linecap="round" stroke-linejoin="round" stroke-miterlimit="10" stroke-width="2.5"/><path fill="rgb(125,125,255)" stroke="none" paint-order="stroke fill markers" d=" M 223.50000000000006 690 C 223.50000000000006 692.761423749154 221.26142374915403 695 218.50000000000006 695 C 215.73857625084608 695 213.50000000000006 692.761423749154 213.50000000000006 690 C 213.50000000000006 687.238576250846 215.73857625084608 685 218.50000000000006 685 C 221.26142374915403 685 223.50000000000006 687.238576250846 223.50000000000006 690 Z" fill-opacity="1"/><path fill="none" stroke="rgb(0,0,0)" paint-order="fill stroke markers" d=" M 223.50000000000006 690 C 223.50000000000006 692.761423749154 221.26142374915403 695 218.50000000000006 695 C 215.73857625084608 695 213.50000000000006 692.761423749154 213.50000000000006 690 C 213.50000000000006 687.238576250846 215.73857625084608 685 218.50000000000006 685 C 221.26142374915403 685 223.50000000000006 687.238576250846 223.50000000000006 690 Z" stroke-opacity="1" stroke-linecap="round" stroke-linejoin="round" stroke-miterlimit="10"/><path fill="rgb(125,125,255)" stroke="none" paint-order="stroke fill markers" d=" M 623.5 690 C 623.5 692.761423749154 621.261423749154 695 618.5 695 C 615.738576250846 695 613.5 692.761423749154 613.5 690 C 613.5 687.238576250846 615.738576250846 685 618.5 685 C 621.261423749154 685 623.5 687.238576250846 623.5 690 Z" fill-opacity="1"/><path fill="none" stroke="rgb(0,0,0)" paint-order="fill stroke markers" d=" M 623.5 690 C 623.5 692.761423749154 621.261423749154 695 618.5 695 C 615.738576250846 695 613.5 692.761423749154 613.5 690 C 613.5 687.238576250846 615.738576250846 685 618.5 685 C 621.261423749154 685 623.5 687.238576250846 623.5 690 Z" stroke-opacity="1" stroke-linecap="round" stroke-linejoin="round" stroke-miterlimit="10"/></g></g></svg>